<svg width="140" height="29" viewBox="0 0 140 29" fill="none" xmlns="http://www.w3.org/2000/svg">
<g clip-path="url(#clip0_2_1976)">
<path d="M137.92 7.27284C137.265 6.64371 136.489 6.15516 135.638 5.83719C134.788 5.51922 133.881 5.37854 132.974 5.42381C131.312 5.51377 129.742 6.21465 128.565 7.39188C127.389 8.56911 126.688 10.1397 126.598 11.8021C126.531 13.2255 126.919 14.6332 127.706 15.8207C128.493 17.0083 129.639 17.9138 130.976 18.4058C132.312 18.8978 133.771 18.9507 135.14 18.5567C136.509 18.1626 137.717 17.3423 138.588 16.2148C138.653 16.1303 138.7 16.0337 138.728 15.9308C138.756 15.8278 138.763 15.7204 138.749 15.6146C138.735 15.5089 138.701 15.407 138.647 15.3146C138.594 15.2222 138.523 15.1412 138.439 15.0762C138.354 15.0113 138.258 14.9636 138.155 14.9359C138.052 14.9083 137.945 14.9011 137.839 14.915C137.733 14.9288 137.631 14.9634 137.539 15.0166C137.446 15.0699 137.366 15.1408 137.301 15.2253C136.697 16.0089 135.877 16.5987 134.942 16.922C134.008 17.2453 132.999 17.2881 132.04 17.045C131.081 16.8018 130.215 16.2835 129.547 15.5538C128.879 14.8241 128.439 13.9149 128.282 12.9382H139.179C139.393 12.9386 139.598 12.8545 139.751 12.7041C139.903 12.5537 139.989 12.3493 139.992 12.1353V12.1236C139.994 11.2159 139.811 10.3171 139.454 9.48285C139.096 8.64857 138.571 7.89644 137.912 7.27284H137.92ZM128.29 11.3074C128.483 10.1189 129.093 9.03795 130.01 8.25785C130.927 7.47776 132.091 7.0494 133.295 7.0494C134.499 7.0494 135.663 7.47776 136.58 8.25785C137.497 9.03795 138.106 10.1189 138.3 11.3074H128.29Z" fill="white"/>
<path d="M39.4533 8.82874C38.4895 8.82866 37.537 9.03702 36.6612 9.43955C35.7854 9.84208 35.007 10.4293 34.3792 11.1609V10.0748C34.3698 9.86487 34.2797 9.66673 34.1279 9.52156C33.9761 9.3764 33.7741 9.29538 33.5641 9.29538C33.3541 9.29538 33.1521 9.3764 33.0003 9.52156C32.8485 9.66673 32.7584 9.86487 32.749 10.0748V25.1535C32.744 25.2637 32.7614 25.3737 32.8001 25.477C32.8388 25.5803 32.8981 25.6746 32.9742 25.7544C33.0504 25.8341 33.142 25.8976 33.2433 25.9409C33.3447 25.9843 33.4538 26.0066 33.5641 26.0066C33.6744 26.0066 33.7835 25.9843 33.8849 25.9409C33.9862 25.8976 34.0778 25.8341 34.154 25.7544C34.2302 25.6746 34.2894 25.5803 34.3281 25.477C34.3668 25.3737 34.3842 25.2637 34.3792 25.1535V19.9013C35.1116 20.7545 36.0468 21.4098 37.0987 21.8068C38.1506 22.2038 39.2855 22.3297 40.3988 22.1729C41.5121 22.0162 42.5681 21.5818 43.4696 20.9099C44.3711 20.2379 45.0891 19.3498 45.5576 18.3275C46.0261 17.3052 46.23 16.1814 46.1505 15.0595C46.071 13.9377 45.7107 12.8539 45.1028 11.9079C44.4948 10.9619 43.6587 10.184 42.6715 9.64595C41.6843 9.10787 40.5776 8.82684 39.4533 8.82874ZM44.5273 15.5252C44.5273 16.5291 44.2298 17.5104 43.6722 18.3451C43.1147 19.1798 42.3222 19.8304 41.3951 20.2145C40.4679 20.5987 39.4477 20.6992 38.4634 20.5034C37.4791 20.3075 36.575 19.8241 35.8654 19.1143C35.1558 18.4044 34.6725 17.5 34.4767 16.5154C34.281 15.5309 34.3814 14.5103 34.7655 13.5829C35.1495 12.6554 35.7999 11.8627 36.6343 11.305C37.4687 10.7472 38.4497 10.4496 39.4533 10.4496C40.7985 10.4513 42.0881 10.9866 43.0392 11.9381C43.9904 12.8896 44.5256 14.1796 44.5273 15.5252Z" fill="white"/>
<path d="M60.0825 9.26016C59.8666 9.26016 59.6594 9.34598 59.5067 9.49875C59.354 9.65151 59.2682 9.8587 59.2682 10.0747V11.1508C58.3754 10.113 57.1865 9.37337 55.8611 9.03134C54.5358 8.68932 53.1375 8.76128 51.8542 9.23756C50.571 9.71383 49.4642 10.5716 48.6826 11.6956C47.901 12.8196 47.482 14.156 47.482 15.5252C47.482 16.8944 47.901 18.2308 48.6826 19.3548C49.4642 20.4788 50.571 21.3366 51.8542 21.8129C53.1375 22.2891 54.5358 22.3611 55.8611 22.0191C57.1865 21.6771 58.3754 20.9374 59.2682 19.8996V20.9774C59.2682 21.1934 59.354 21.4006 59.5067 21.5533C59.6594 21.7061 59.8666 21.7919 60.0825 21.7919C60.2985 21.7919 60.5056 21.7061 60.6583 21.5533C60.811 21.4006 60.8968 21.1934 60.8968 20.9774V10.0747C60.8968 9.8587 60.811 9.65151 60.6583 9.49875C60.5056 9.34598 60.2985 9.26016 60.0825 9.26016ZM59.2682 15.5252C59.2685 16.5295 58.9711 17.5113 58.4136 18.3465C57.8561 19.1817 57.0635 19.8327 56.1361 20.2173C55.2086 20.6018 54.188 20.7026 53.2033 20.5069C52.2186 20.3111 51.314 19.8277 50.604 19.1177C49.894 18.4077 49.4104 17.503 49.2145 16.518C49.0185 15.5331 49.1189 14.5121 49.503 13.5842C49.8871 12.6564 50.5377 11.8633 51.3724 11.3053C52.2072 10.7474 53.1886 10.4495 54.1925 10.4495C55.538 10.4509 56.828 10.986 57.7795 11.9375C58.7311 12.8891 59.2664 14.1793 59.2682 15.5252Z" fill="white"/>
<path d="M90.2254 9.26016C90.0103 9.26016 89.804 9.34563 89.652 9.49777C89.4999 9.64991 89.4144 9.85625 89.4144 10.0714V11.1508C88.5216 10.113 87.3327 9.37337 86.0073 9.03134C84.682 8.68932 83.2837 8.76128 82.0004 9.23756C80.7172 9.71383 79.6104 10.5716 78.8288 11.6956C78.0472 12.8196 77.6282 14.156 77.6282 15.5252C77.6282 16.8944 78.0472 18.2308 78.8288 19.3548C79.6104 20.4788 80.7172 21.3366 82.0004 21.8129C83.2837 22.2891 84.682 22.3611 86.0073 22.0191C87.3327 21.6771 88.5216 20.9374 89.4144 19.8996V20.979C89.4144 21.1943 89.4998 21.4008 89.6519 21.5532C89.8039 21.7056 90.0102 21.7915 90.2254 21.7919C90.4406 21.7915 90.6469 21.7056 90.799 21.5532C90.951 21.4008 91.0364 21.1943 91.0364 20.979V10.0714C91.0362 9.96437 91.0148 9.85843 90.9736 9.75967C90.9323 9.66091 90.872 9.57127 90.796 9.4959C90.72 9.42052 90.6299 9.3609 90.5309 9.32044C90.4318 9.27999 90.3257 9.2595 90.2187 9.26016H90.2254ZM89.4144 15.5252C89.4148 16.5295 89.1173 17.5113 88.5598 18.3465C88.0023 19.1817 87.2097 19.8327 86.2823 20.2173C85.3548 20.6018 84.3342 20.7026 83.3495 20.5069C82.3648 20.3111 81.4602 19.8277 80.7502 19.1177C80.0402 18.4077 79.5566 17.503 79.3606 16.518C79.1647 15.5331 79.2651 14.5121 79.6492 13.5842C80.0333 12.6564 80.6839 11.8633 81.5186 11.3053C82.3534 10.7474 83.3348 10.4495 84.3387 10.4495C85.6842 10.4509 86.9742 10.986 87.9257 11.9375C88.8773 12.8891 89.4127 14.1793 89.4144 15.5252Z" fill="white"/>
<path d="M75.1531 9.26018C74.9379 9.26018 74.7314 9.3456 74.5791 9.49769C74.4267 9.64978 74.3409 9.85612 74.3405 10.0714V11.1509C73.4476 10.1132 72.2586 9.37383 70.9333 9.03199C69.608 8.69015 68.2098 8.76225 66.9267 9.2386C65.6436 9.71495 64.5369 10.5727 63.7554 11.6967C62.9739 12.8207 62.555 14.157 62.555 15.5261C62.555 16.8952 62.9739 18.2315 63.7554 19.3554C64.5369 20.4794 65.6436 21.3372 66.9267 21.8135C68.2098 22.2899 69.608 22.362 70.9333 22.0201C72.2586 21.6783 73.4476 20.9389 74.3405 19.9013V22.1434C74.3344 23.4548 73.8079 24.7101 72.8767 25.6333C72.4351 26.078 71.9093 26.4303 71.33 26.6694C70.7507 26.9085 70.1296 27.0297 69.5029 27.0259C68.5602 27.0179 67.6408 26.7321 66.8597 26.2041C66.0787 25.6761 65.4706 24.9294 65.1116 24.0574C65.0552 23.9212 64.9629 23.8029 64.8446 23.7151C64.7262 23.6272 64.5863 23.5732 64.4396 23.5586C64.293 23.5441 64.1451 23.5696 64.0118 23.6326C63.8786 23.6955 63.7649 23.7934 63.6828 23.9158C63.6096 24.0252 63.5643 24.1509 63.5509 24.2819C63.5376 24.4129 63.5566 24.5452 63.6062 24.6671C64.0871 25.8474 64.9094 26.8573 65.9677 27.5672C67.0259 28.2771 68.272 28.6547 69.5462 28.6517H69.5845C73.1049 28.6317 75.9708 25.7049 75.9708 22.1284V10.0714C75.9706 9.96439 75.9492 9.85845 75.908 9.75969C75.8667 9.66093 75.8064 9.57129 75.7304 9.49592C75.6544 9.42054 75.5643 9.36092 75.4653 9.32046C75.3662 9.28001 75.2601 9.25953 75.1531 9.26018ZM74.3405 15.5252C74.3408 16.5299 74.0432 17.5121 73.4852 18.3475C72.9272 19.1829 72.134 19.834 71.206 20.2182C70.278 20.6025 69.2569 20.7027 68.2719 20.5061C67.2869 20.3096 66.3824 19.8252 65.6728 19.1142C64.9631 18.4031 64.4804 17.4975 64.2855 16.5119C64.0906 15.5263 64.1925 14.505 64.5781 13.5773C64.9638 12.6496 65.6159 11.8573 66.452 11.3005C67.288 10.7437 68.2704 10.4476 69.2748 10.4496C70.6185 10.4535 71.9059 10.9898 72.8553 11.9411C73.8047 12.8923 74.3387 14.1811 74.3405 15.5252Z" fill="white"/>
<path d="M96.978 16.9911C96.6018 16.8891 96.2696 16.6663 96.0324 16.3568C95.7953 16.0474 95.6665 15.6685 95.6658 15.2787V0.814573C95.6658 0.598535 95.58 0.391345 95.4273 0.238583C95.2746 0.0858208 95.0675 0 94.8515 0C94.6355 0 94.4284 0.0858208 94.2757 0.238583C94.123 0.391345 94.0372 0.598535 94.0372 0.814573V15.277C94.0376 16.0275 94.2858 16.7569 94.7432 17.3518C95.2006 17.9467 95.8417 18.3739 96.5667 18.5669C96.6856 18.5997 96.8105 18.6042 96.9314 18.5799C97.0523 18.5556 97.1658 18.5032 97.2628 18.427C97.3626 18.3507 97.4433 18.2524 97.4988 18.1397C97.5543 18.027 97.5829 17.903 97.5825 17.7773C97.5819 17.5979 97.5224 17.4237 97.4132 17.2814C97.304 17.139 97.1511 17.0365 96.978 16.9894" fill="white"/>
<path d="M104.883 5.42386C103.221 5.51383 101.651 6.21471 100.474 7.39194C99.2973 8.56917 98.5967 10.1398 98.5067 11.8022C98.437 13.2276 98.8241 14.6381 99.6117 15.8281C100.399 17.0181 101.546 17.9254 102.885 18.4179C104.224 18.9104 105.686 18.9623 107.056 18.566C108.427 18.1697 109.635 17.346 110.505 16.2149C110.573 16.1305 110.624 16.0333 110.654 15.9291C110.684 15.8248 110.693 15.7155 110.681 15.6077C110.668 15.4999 110.634 15.3957 110.58 15.3014C110.526 15.207 110.454 15.1243 110.368 15.0582C110.282 14.9921 110.184 14.944 110.079 14.9165C109.974 14.8891 109.864 14.883 109.757 14.8986C109.649 14.9142 109.546 14.9511 109.453 15.0073C109.36 15.0634 109.28 15.1376 109.216 15.2254C108.612 16.0084 107.792 16.5977 106.858 16.9207C105.924 17.2437 104.915 17.2862 103.957 17.0432C102.998 16.8001 102.132 16.282 101.464 15.5526C100.797 14.8233 100.357 13.9145 100.199 12.9383H111.091C111.306 12.9391 111.513 12.8546 111.666 12.7031C111.819 12.5516 111.906 12.3457 111.907 12.1303C111.906 11.2229 111.722 10.325 111.364 9.49102C111.007 8.657 110.484 7.90414 109.827 7.27792C109.171 6.6517 108.394 6.16512 107.544 5.8476C106.694 5.53008 105.789 5.38819 104.883 5.43053V5.42386ZM100.199 11.3074C100.392 10.119 101.001 9.038 101.918 8.25791C102.835 7.47782 104 7.04946 105.204 7.04946C106.407 7.04946 107.572 7.47782 108.489 8.25791C109.406 9.038 110.015 10.119 110.208 11.3074H100.199Z" fill="white"/>
<path d="M125.194 5.78027C125.049 5.78129 124.907 5.82226 124.784 5.89868C124.661 5.97509 124.562 6.08398 124.496 6.21338L119.258 16.438L114.02 6.21338C113.955 6.08398 113.855 5.97509 113.732 5.89868C113.609 5.82226 113.467 5.78129 113.323 5.78027C113.185 5.78057 113.05 5.81725 112.931 5.88659C112.813 5.95593 112.714 6.05545 112.646 6.17507C112.576 6.29602 112.537 6.43286 112.533 6.57291C112.529 6.71297 112.561 6.85172 112.625 6.97631L118.26 17.9705C118.352 18.1576 118.494 18.3152 118.67 18.4255C118.847 18.5357 119.051 18.5942 119.259 18.5942C119.467 18.5942 119.671 18.5357 119.848 18.4255C120.025 18.3152 120.167 18.1576 120.258 17.9705L125.894 6.97631C125.958 6.85172 125.989 6.71297 125.985 6.57291C125.982 6.43286 125.943 6.29602 125.872 6.17507C125.804 6.05522 125.706 5.95551 125.587 5.88614C125.468 5.81676 125.333 5.78023 125.196 5.78027" fill="white"/>
<path d="M5.69684 7.7959C5.42153 7.44429 5.25043 7.02242 5.20301 6.57832C5.1556 6.13421 5.23377 5.68571 5.42864 5.28387C5.62352 4.88202 5.92725 4.54298 6.30528 4.30532C6.68331 4.06767 7.12045 3.94095 7.56693 3.93959C7.66324 3.93994 7.75944 3.94606 7.85502 3.95791C8.1658 3.99453 8.46623 4.09245 8.73892 4.246C9.01161 4.39954 9.25116 4.60567 9.44368 4.85244L14.3545 11.1058C16.3637 11.0665 18.3654 10.8491 20.3361 10.4562L21.9814 8.3656C22.5712 7.61455 22.8387 6.65987 22.7248 5.71159C22.611 4.76331 22.1252 3.89911 21.3744 3.30909C20.6236 2.71907 19.6692 2.45157 18.7213 2.56544C17.7733 2.67931 16.9094 3.16522 16.3195 3.91627L13.4719 7.53937L10.6293 3.9196C9.99055 3.11243 9.05803 2.59137 8.03599 2.47052C7.01395 2.34967 5.98568 2.63888 5.17636 3.27483C4.36704 3.91077 3.84262 4.84161 3.71795 5.86351C3.59328 6.88542 3.87851 7.9151 4.51118 8.72708L5.8234 10.3929C6.52115 10.5495 7.26718 10.6811 8.04985 10.786L5.69684 7.7959Z" fill="#89F1AB"/>
<path d="M12.5127 19.5014L9.44367 23.4094C9.04894 23.8935 8.48003 24.2032 7.85934 24.272C7.23865 24.3407 6.61578 24.163 6.12475 23.777C5.63372 23.391 5.31377 22.8277 5.23374 22.2082C5.15372 21.5886 5.32001 20.9624 5.69683 20.4643L7.63853 17.9906C7.05235 17.9195 6.4784 17.8368 5.91665 17.7424L4.51117 19.5298C4.19332 19.9314 3.95787 20.3919 3.81833 20.8847C3.67879 21.3776 3.6379 21.8932 3.69801 22.4019C3.75813 22.9106 3.91806 23.4024 4.16863 23.8491C4.4192 24.2959 4.75548 24.6887 5.15818 25.0052C5.56088 25.3216 6.02207 25.5554 6.51531 25.6931C7.00854 25.8308 7.5241 25.8698 8.03241 25.8077C8.54072 25.7457 9.03179 25.5838 9.47743 25.3315C9.92308 25.0791 10.3145 24.7413 10.6293 24.3372L13.4719 20.7208L16.3195 24.3456C16.9137 25.0836 17.7747 25.5577 18.716 25.6649C19.6572 25.7722 20.6027 25.5041 21.3477 24.9187C22.0926 24.3333 22.5769 23.4778 22.6955 22.5376C22.8141 21.5975 22.5576 20.6484 21.9814 19.8962L20.3161 17.779C18.043 18.135 15.7461 18.3171 13.4453 18.3237L12.5127 19.5014Z" fill="#89F1AB"/>
<path d="M8.04985 10.791L9.80004 13.0198C10.0492 13.3362 10.1847 13.7273 10.1847 14.1301C10.1847 14.5329 10.0492 14.924 9.80004 15.2403L9.56357 15.5419L7.63853 17.9906C9.48876 18.2116 11.3504 18.3228 13.2138 18.3237H13.4453L15.5752 15.6035C15.9052 15.1837 16.0847 14.665 16.0847 14.1309C16.0847 13.5968 15.9052 13.0782 15.5752 12.6584L14.3562 11.1059C12.2491 11.1673 10.1404 11.0621 8.04985 10.791Z" fill="#DA38EB"/>
<path d="M26.2795 12.5218C26.0093 11.6074 25.3874 10.8377 24.5503 10.3817C23.7131 9.92565 22.7293 9.82066 21.8149 10.0897C21.3536 10.2247 20.8607 10.3479 20.3428 10.4562L17.4519 14.131L20.3162 17.779C21.5087 17.5922 22.6884 17.3307 23.8482 16.9961C24.3016 16.8622 24.7242 16.6401 25.0918 16.3428C25.4594 16.0454 25.7648 15.6784 25.9906 15.2629C26.2164 14.8474 26.3581 14.3914 26.4077 13.9211C26.4572 13.4508 26.4137 12.9753 26.2795 12.5218Z" fill="#DA38EB"/>
<path d="M8.61438 13.951L5.8284 10.3979C5.40875 10.3029 5.00576 10.2013 4.62608 10.0897C4.16753 9.93545 3.68262 9.87523 3.20029 9.91263C2.71796 9.95003 2.24811 10.0843 1.8188 10.3074C1.3895 10.5305 1.00955 10.8378 0.701639 11.2111C0.393729 11.5843 0.164179 12.0159 0.0266976 12.4798C-0.110784 12.9438 -0.153376 13.4307 -0.0985343 13.9116C-0.043693 14.3924 0.107456 14.8572 0.345887 15.2783C0.584317 15.6994 0.905137 16.068 1.28919 16.3623C1.67323 16.6566 2.11263 16.8704 2.58114 16.9911C3.67528 17.3076 4.78746 17.5579 5.91166 17.7407L8.61438 14.3091C8.65477 14.2582 8.67675 14.1951 8.67675 14.1301C8.67675 14.0651 8.65477 14.0019 8.61438 13.951Z" fill="#DA38EB"/>
<path d="M9.56358 15.5418L9.80004 15.2403C10.0492 14.9239 10.1847 14.5328 10.1847 14.13C10.1847 13.7272 10.0492 13.3362 9.80004 13.0198L8.04985 10.791C7.26718 10.686 6.52115 10.5544 5.8234 10.3978L8.61438 13.951C8.65477 14.0019 8.67675 14.065 8.67675 14.13C8.67675 14.1951 8.65477 14.2582 8.61438 14.3091L5.91666 17.7456C6.47729 17.8389 7.05125 17.9217 7.63854 17.9938L9.56358 15.5418Z" fill="#24359C"/>
<path d="M20.3361 10.4562C18.3659 10.849 16.3648 11.0664 14.3562 11.1058L15.5752 12.66C15.9061 13.0795 16.0861 13.5982 16.0861 14.1326C16.0861 14.6669 15.9061 15.1857 15.5752 15.6051L13.4453 18.3237C15.7461 18.3171 18.043 18.135 20.3162 17.779L17.4519 14.1309L20.3361 10.4562Z" fill="#24359C"/>
</g>
<defs>
<clipPath id="clip0_2_1976">
<rect width="140" height="28.655" fill="white"/>
</clipPath>
</defs>
</svg>
